<?xml version="1.0" encoding="UTF-8"?>
<svg id="alt_marka" data-name="alt marka" xmlns="http://www.w3.org/2000/svg" viewBox="0 0 2128.86 585.92">
  <defs>
    <style>
      .cls-1 {
        fill: #071400;
      }
    </style>
  </defs>
  <path class="cls-1" d="M576.73,405.81c-27.59,0-51.06-9.73-70.42-29.19-19.37-19.46-29.05-42.89-29.05-70.28s9.68-50.73,29.05-70c19.36-19.27,42.84-28.9,70.42-28.9s50.73,9.64,70,28.9c19.27,19.27,28.91,42.61,28.91,70s-9.64,50.82-28.91,70.28c-19.27,19.46-42.61,29.19-70,29.19ZM616.54,346.73c11.05-11.06,16.58-24.42,16.58-40.1s-5.53-29.28-16.58-40.24c-11.05-10.96-24.42-16.44-40.1-16.44s-29.05,5.48-40.1,16.44-16.58,24.37-16.58,40.24,5.53,29.05,16.58,40.1c11.05,11.05,24.42,16.58,40.1,16.58s29.05-5.53,40.1-16.58Z"/>
  <path class="cls-1" d="M859.83,249.95v113.35h-113.35v-113.35h113.35v-42.5h-155.86v283.4h42.5v-85.04h155.86v-155.86h-42.5Z"/>
  <path class="cls-1" d="M1122.82,342.05c-4.92,12.66-12.47,24.18-22.67,34.57-19.27,19.46-42.6,29.19-69.99,29.19s-51.06-9.73-70.42-29.19c-19.37-19.46-29.05-42.89-29.05-70.28s9.68-50.73,29.05-70c19.36-19.27,42.83-28.9,70.42-28.9s50.73,9.64,69.99,28.9,28.9,42.61,28.9,70c0,7.56-.76,14.74-2.27,21.54h-149.63c2.64,6.8,6.89,13.04,12.75,18.71,10.95,11.15,24.27,16.72,39.96,16.72s29.09-5.57,40.24-16.72c1.51-1.51,2.92-3.02,4.25-4.53h48.46ZM1082.58,285.38c-2.65-6.99-6.8-13.32-12.47-18.99-11.15-10.96-24.56-16.44-40.24-16.44s-29.01,5.48-39.96,16.44c-5.86,5.66-10.11,12-12.75,18.99h105.42Z"/>
  <path class="cls-1" d="M1199.9,249.95v155.86h-42.51v-198.37h155.86c3.96,0,7.32,1.37,10.06,4.11,2.73,2.74,4.11,6.09,4.11,10.06v85.01h-42.51v-56.68h-85.01Z"/>
  <rect class="cls-1" x="1497.44" y="249.95" width="42.53" height="155.86"/>
  <polygon class="cls-1" points="1355.77 207.44 1355.77 405.8 1398.27 405.8 1398.27 249.95 1497.44 249.95 1497.44 207.44 1355.77 207.44"/>
  <path class="cls-1" d="M1561.21,405.8v-177.11h42.51v177.11h-42.51Z"/>
  <rect class="cls-1" x="1518.71" y="186.18" width="42.51" height="42.51"/>
  <g>
    <path class="cls-1" d="M1805.21,207.44h-60.65l-77.06,79.07v-79.07h-42.53v198.36h42.53v-81.05l77.06,81.05h60.65l-94.64-99.17,94.64-99.19Z"/>
    <rect class="cls-1" x="1582.47" y="164.93" width="42.51" height="42.51"/>
  </g>
  <g>
    <path class="cls-1" d="M459.12,207.44h-60.65l-77.06,79.07v-79.07h-42.53v198.36h42.53v-81.05l77.06,81.05h60.65l-94.64-99.17,94.64-99.19Z"/>
    <rect class="cls-1" x="236.38" y="164.93" width="42.51" height="42.51"/>
  </g>
</svg>