<svg xmlns="http://www.w3.org/2000/svg" xmlns:xlink="http://www.w3.org/1999/xlink" width="400" zoomAndPan="magnify" viewBox="0 0 300 104.999996" height="140" preserveAspectRatio="xMidYMid meet" version="1.0"><path fill="#ffffff" d="M 66.8125 73.640625 C 61.644531 73.640625 57.246094 71.816406 53.621094 68.171875 C 49.992188 64.527344 48.179688 60.136719 48.179688 55.007812 C 48.179688 49.875 49.992188 45.503906 53.621094 41.894531 C 57.246094 38.285156 61.644531 36.480469 66.8125 36.480469 C 71.976562 36.480469 76.3125 38.285156 79.925781 41.894531 C 83.535156 45.503906 85.339844 49.875 85.339844 55.007812 C 85.339844 60.136719 83.535156 64.527344 79.925781 68.171875 C 76.3125 71.816406 71.941406 73.640625 66.8125 73.640625 Z M 74.269531 62.574219 C 76.339844 60.5 77.375 57.996094 77.375 55.0625 C 77.375 52.125 76.339844 49.574219 74.269531 47.523438 C 72.199219 45.46875 69.695312 44.441406 66.757812 44.441406 C 63.820312 44.441406 61.316406 45.46875 59.246094 47.523438 C 57.175781 49.574219 56.140625 52.085938 56.140625 55.0625 C 56.140625 58.035156 57.175781 60.503906 59.246094 62.574219 C 61.316406 64.640625 63.820312 65.679688 66.757812 65.679688 C 69.695312 65.679688 72.199219 64.640625 74.269531 62.574219 Z M 74.269531 62.574219 " fill-opacity="1" fill-rule="nonzero"/><path fill="#ffffff" d="M 119.84375 44.441406 L 119.84375 65.675781 L 98.609375 65.675781 L 98.609375 44.441406 L 119.84375 44.441406 L 119.84375 36.480469 L 90.644531 36.480469 L 90.644531 89.570312 L 98.609375 89.570312 L 98.609375 73.640625 L 127.804688 73.640625 L 127.804688 44.441406 Z M 119.84375 44.441406 " fill-opacity="1" fill-rule="nonzero"/><path fill="#ffffff" d="M 169.109375 61.695312 C 168.1875 64.066406 166.773438 66.226562 164.859375 68.171875 C 161.25 71.816406 156.882812 73.640625 151.75 73.640625 C 146.621094 73.640625 142.183594 71.816406 138.558594 68.171875 C 134.929688 64.527344 133.117188 60.136719 133.117188 55.007812 C 133.117188 49.875 134.929688 45.503906 138.558594 41.894531 C 142.183594 38.285156 146.582031 36.480469 151.75 36.480469 C 156.917969 36.480469 161.253906 38.285156 164.859375 41.894531 C 168.46875 45.5 170.273438 49.875 170.273438 55.007812 C 170.273438 56.421875 170.132812 57.765625 169.847656 59.042969 L 141.820312 59.042969 C 142.316406 60.316406 143.109375 61.484375 144.207031 62.546875 C 146.257812 64.636719 148.753906 65.679688 151.695312 65.679688 C 154.632812 65.679688 157.144531 64.636719 159.230469 62.546875 C 159.515625 62.261719 159.777344 61.980469 160.027344 61.699219 L 169.105469 61.699219 Z M 161.570312 51.078125 C 161.074219 49.769531 160.296875 48.585938 159.234375 47.523438 C 157.144531 45.46875 154.632812 44.441406 151.695312 44.441406 C 148.757812 44.441406 146.261719 45.46875 144.210938 47.523438 C 143.113281 48.582031 142.316406 49.769531 141.820312 51.078125 Z M 161.570312 51.078125 " fill-opacity="1" fill-rule="nonzero"/><path fill="#ffffff" d="M 183.546875 44.441406 L 183.546875 73.640625 L 175.582031 73.640625 L 175.582031 36.480469 L 204.78125 36.480469 C 205.523438 36.480469 206.152344 36.738281 206.664062 37.25 C 207.175781 37.761719 207.433594 38.390625 207.433594 39.132812 L 207.433594 55.058594 L 199.472656 55.058594 L 199.472656 44.441406 Z M 183.546875 44.441406 " fill-opacity="1" fill-rule="nonzero"/><path fill="#ffffff" d="M 239.285156 44.441406 L 247.25 44.441406 L 247.25 73.640625 L 239.285156 73.640625 Z M 239.285156 44.441406 " fill-opacity="1" fill-rule="nonzero"/><path fill="#ffffff" d="M 212.746094 36.480469 L 212.746094 73.636719 L 220.707031 73.636719 L 220.707031 44.441406 L 239.285156 44.441406 L 239.285156 36.480469 Z M 212.746094 36.480469 " fill-opacity="1" fill-rule="nonzero"/><path fill="#ffffff" d="M 251.230469 40.460938 L 259.191406 40.460938 L 259.191406 73.636719 L 251.230469 73.636719 Z M 251.230469 40.460938 " fill-opacity="1" fill-rule="nonzero"/><path fill="#ffffff" d="M 243.269531 32.496094 L 251.230469 32.496094 L 251.230469 40.460938 L 243.269531 40.460938 Z M 243.269531 32.496094 " fill-opacity="1" fill-rule="nonzero"/><path fill="#ffffff" d="M 296.9375 36.480469 L 285.574219 36.480469 L 271.140625 51.292969 L 271.140625 36.480469 L 263.171875 36.480469 L 263.171875 73.636719 L 271.140625 73.636719 L 271.140625 58.453125 L 285.574219 73.636719 L 296.9375 73.636719 L 279.207031 55.0625 Z M 296.9375 36.480469 " fill-opacity="1" fill-rule="nonzero"/><path fill="#ffffff" d="M 255.210938 28.515625 L 263.175781 28.515625 L 263.175781 36.480469 L 255.210938 36.480469 Z M 255.210938 28.515625 " fill-opacity="1" fill-rule="nonzero"/><path fill="#ffffff" d="M 44.78125 36.480469 L 33.417969 36.480469 L 18.984375 51.292969 L 18.984375 36.480469 L 11.015625 36.480469 L 11.015625 73.636719 L 18.984375 73.636719 L 18.984375 58.453125 L 33.417969 73.636719 L 44.78125 73.636719 L 27.050781 55.0625 Z M 44.78125 36.480469 " fill-opacity="1" fill-rule="nonzero"/><path fill="#ffffff" d="M 3.054688 28.515625 L 11.019531 28.515625 L 11.019531 36.480469 L 3.054688 36.480469 Z M 3.054688 28.515625 " fill-opacity="1" fill-rule="nonzero"/></svg>